<?xml version="1.0" encoding="UTF-8"?>
<!DOCTYPE svg PUBLIC "-//W3C//DTD SVG 1.1//EN" "http://www.w3.org/Graphics/SVG/1.1/DTD/svg11.dtd">
<!-- Creator: CorelDRAW 2019 (64-Bit) -->
<svg xmlns="http://www.w3.org/2000/svg" xml:space="preserve" width="1.10386in" height="1.1427in" version="1.1" style="shape-rendering:geometricPrecision; text-rendering:geometricPrecision; image-rendering:optimizeQuality; fill-rule:evenodd; clip-rule:evenodd"
viewBox="0 0 1103.86 1142.7"
 xmlns:xlink="http://www.w3.org/1999/xlink">
 <defs>
  <style type="text/css">
   <![CDATA[
    .fil0 {fill:#F3BD44;fill-rule:nonzero}
   ]]>
  </style>
 </defs>
 <g id="Layer_x0020_1">
  <metadata id="CorelCorpID_0Corel-Layer"/>
  <path class="fil0" d="M401.62 1041.93c21.63,7 36.08,28.36 32.27,47.7 -3.81,19.33 -24.45,29.33 -46.08,22.33 -115.28,-37.31 -212.78,-110.25 -281.3,-204.33 -67.37,-92.5 -106.51,-205.36 -106.51,-324.46l0 -107.65c0.05,-20.27 17.93,-33.79 39.92,-30.2 22,3.59 39.79,22.95 39.74,43.22l0 107.65c0,102.39 33.19,198.78 90.3,277.2 56.59,77.7 136.89,137.87 231.65,168.54zm444.27 -748.34c0.05,-20.28 17.93,-33.8 39.92,-30.2 22,3.59 39.79,22.95 39.74,43.23l0 61.87 0 213.06c0,69.15 -19.45,133.92 -53.12,189.05 -34.75,56.89 -84.71,103.64 -144.11,134.43 -17.7,9.24 -42.69,1.77 -55.8,-16.67 -13.11,-18.44 -9.39,-40.88 8.31,-50.12 49.78,-25.8 91.65,-64.99 120.79,-112.69 28.07,-45.96 44.28,-99.76 44.28,-157.03l0 -39.72c-19.43,14.24 -41.19,26.83 -63.83,39.94 -87.23,50.48 -190.3,110.12 -190.3,344.91l0 0.01 0 198.26c-0.05,20.27 -17.93,33.8 -39.92,30.2 -21.99,-3.59 -39.78,-22.95 -39.74,-43.22l0 -198.26c0,-228.63 -98.46,-285.61 -181.77,-333.82 -25.85,-14.96 -50.61,-29.28 -72.37,-45.83l0 60.56c0,55.18 15.18,106.71 41.51,150.58 26.7,44.48 64.93,81.12 110.33,105.56 20.35,10.96 30.08,33.98 21.75,51.39 -8.33,17.42 -31.59,22.64 -51.94,11.68 -61.29,-32.99 -112.61,-81.97 -148.13,-141.16 -33.74,-56.22 -53.19,-121.64 -53.19,-191.08l0 -213.05 0 -69.76c0.05,-20.28 17.93,-33.8 39.92,-30.2 22,3.59 39.79,22.95 39.74,43.23l0 69.76c0,75.88 48.96,104.22 105.42,136.89 8.25,4.77 16.61,9.61 25.03,14.62 -13.47,-95.53 29.67,-179.91 71.27,-261.19 21.34,-41.71 42.22,-82.5 52.42,-122.27l0 -105.76c0.05,-20.28 17.93,-33.8 39.92,-30.2 22,3.59 39.79,22.95 39.74,43.23l0 105.92c9.93,37.76 30.39,77.74 51.3,118.59 39.18,76.57 79.73,155.87 74.17,243.69 4.94,-2.89 9.84,-5.73 14.7,-8.54 61.04,-35.32 113.96,-65.94 113.96,-148l0 -61.87zm-313.19 6.48c-49.63,96.99 -101.91,199.24 -22.19,320.33 5.47,6.96 10.76,14.28 15.83,22.04 6.41,8.24 13.43,16.56 21.13,24.98 11.21,-11.83 21.15,-23.48 29.93,-34.93 4.07,-6.08 8.27,-11.89 12.59,-17.46 84.39,-124.8 32.02,-227.28 -17.72,-324.48 -5.91,-11.55 -11.78,-23.03 -17.46,-34.51 -7.07,14.63 -14.56,29.27 -22.11,44.02zm491.49 175.41c0.05,-20.27 17.93,-33.79 39.92,-30.2 22,3.59 39.79,22.95 39.74,43.22l0 107.68c0,119.62 -39.11,230.4 -105.12,320.15 -67.81,92.19 -164.18,162.46 -275.91,197.61 -19.54,6.14 -43.56,-4.81 -53.64,-24.45 -10.08,-19.65 -2.41,-40.56 17.14,-46.7 98.64,-31.03 183.95,-93.38 244.23,-175.33 58.81,-79.96 93.65,-178.35 93.65,-284.3l0 -107.68z"/>
 </g>
</svg>
