<?xml version="1.0" encoding="UTF-8"?>
<!DOCTYPE svg PUBLIC "-//W3C//DTD SVG 1.1//EN" "http://www.w3.org/Graphics/SVG/1.1/DTD/svg11.dtd">
<!-- Creator: CorelDRAW 2019 (64-Bit) -->
<svg xmlns="http://www.w3.org/2000/svg" xml:space="preserve" width="3.24313in" height="1.14271in" version="1.1" style="shape-rendering:geometricPrecision; text-rendering:geometricPrecision; image-rendering:optimizeQuality; fill-rule:evenodd; clip-rule:evenodd"
viewBox="0 0 3243.13 1142.71"
 xmlns:xlink="http://www.w3.org/1999/xlink">
 <defs>
  <style type="text/css">
   <![CDATA[
    .fil0 {fill:#F3BD44;fill-rule:nonzero}
    .fil1 {fill:#FEFEFE;fill-rule:nonzero}
   ]]>
  </style>
 </defs>
 <g id="Layer_x0020_1">
  <metadata id="CorelCorpID_0Corel-Layer"/>
  <g id="_2517815814496">
   <path class="fil0" d="M401.62 1041.94c21.63,7 36.08,28.36 32.27,47.7 -3.81,19.33 -24.45,29.33 -46.08,22.33 -115.28,-37.31 -212.78,-110.25 -281.3,-204.33 -67.37,-92.5 -106.51,-205.36 -106.51,-324.46l0 -107.65c0.05,-20.27 17.93,-33.79 39.92,-30.2 22,3.59 39.79,22.95 39.74,43.22l0 107.65c0,102.39 33.19,198.78 90.3,277.2 56.59,77.7 136.89,137.87 231.65,168.54zm444.28 -748.34c0.05,-20.28 17.93,-33.8 39.92,-30.2 22,3.59 39.79,22.95 39.74,43.23l0 61.87 0 213.06c0,69.15 -19.45,133.92 -53.12,189.05 -34.75,56.89 -84.71,103.64 -144.11,134.43 -17.7,9.24 -42.69,1.77 -55.8,-16.67 -13.11,-18.44 -9.39,-40.88 8.31,-50.12 49.78,-25.8 91.65,-64.99 120.79,-112.69 28.07,-45.96 44.28,-99.76 44.28,-157.03l0 -39.73c-19.43,14.24 -41.19,26.83 -63.83,39.94 -87.23,50.48 -190.3,110.12 -190.3,344.91l0 0.01 0 198.26c-0.05,20.27 -17.93,33.8 -39.92,30.2 -22,-3.59 -39.79,-22.95 -39.74,-43.22l0 -198.26c0,-228.63 -98.46,-285.61 -181.77,-333.82 -25.85,-14.96 -50.61,-29.29 -72.37,-45.83l0 60.56c0,55.18 15.18,106.71 41.51,150.58 26.7,44.48 64.93,81.12 110.33,105.56 20.35,10.96 30.08,33.98 21.75,51.39 -8.33,17.42 -31.59,22.64 -51.94,11.68 -61.29,-32.99 -112.61,-81.97 -148.13,-141.16 -33.74,-56.22 -53.19,-121.64 -53.19,-191.08l0 -213.05 0 -69.76c0.05,-20.28 17.93,-33.8 39.92,-30.2 22,3.59 39.79,22.95 39.74,43.23l0 69.76c0,75.88 48.96,104.22 105.42,136.89 8.25,4.77 16.61,9.61 25.03,14.62 -13.47,-95.53 29.67,-179.91 71.27,-261.19 21.34,-41.71 42.22,-82.5 52.42,-122.27l0 -105.76c0.05,-20.28 17.93,-33.8 39.92,-30.2 22,3.59 39.79,22.95 39.74,43.23l0 105.92c9.93,37.76 30.39,77.74 51.3,118.59 39.18,76.57 79.73,155.87 74.17,243.69 4.94,-2.89 9.84,-5.73 14.7,-8.54 61.04,-35.32 113.96,-65.94 113.96,-148l0 -61.87zm-313.19 6.48c-49.63,96.99 -101.91,199.24 -22.19,320.33 5.47,6.96 10.76,14.28 15.83,22.04 6.41,8.24 13.43,16.56 21.13,24.98 11.21,-11.83 21.15,-23.48 29.93,-34.93 4.07,-6.08 8.27,-11.89 12.59,-17.46 84.39,-124.81 32.02,-227.29 -17.72,-324.48 -5.91,-11.55 -11.78,-23.03 -17.46,-34.51 -7.07,14.63 -14.57,29.27 -22.11,44.02zm491.49 175.41c0.05,-20.27 17.93,-33.79 39.92,-30.2 22,3.59 39.79,22.95 39.74,43.22l0 107.68c0,119.62 -39.11,230.4 -105.12,320.15 -67.81,92.19 -164.18,162.46 -275.91,197.61 -19.54,6.14 -43.56,-4.81 -53.64,-24.45 -10.08,-19.65 -2.41,-40.56 17.14,-46.7 98.64,-31.03 183.95,-93.38 244.23,-175.33 58.81,-79.96 93.65,-178.35 93.65,-284.3l0 -107.68z"/>
   <path class="fil1" d="M1249.94 891.54m136.09 0l0 -381.95 -136.09 0 0 -77.67 364.62 0 0 77.67 -135.45 0 0 381.95 -93.08 0zm288.87 0m0 0l0 -459.62 195.79 0c48.79,0 84.74,3.85 106.56,12.2 22.47,8.35 40.44,23.11 53.93,44.29 13.48,21.19 19.9,44.94 19.9,72.54 0,34.02 -10.27,62.91 -30.17,85.38 -20.54,22.47 -50.71,36.59 -90.51,42.37 19.9,11.56 36.59,24.39 49.43,38.52 12.84,14.12 30.17,39.16 52.64,74.46l55.85 89.87 -111.06 0 -66.12 -100.14c-24.39,-35.95 -40.44,-58.41 -49.43,-67.4 -8.98,-9.63 -17.97,-16.05 -27.6,-19.26 -10.27,-3.21 -25.68,-5.13 -47.5,-5.13l-18.61 0 0 191.94 -93.08 0zm93.08 -265.12l68.69 0c44.3,0 72.54,-1.93 83.45,-5.78 10.91,-3.85 19.9,-10.27 25.68,-19.26 6.42,-9.63 9.63,-21.18 9.63,-34.66 0,-15.41 -3.85,-28.25 -12.2,-37.87 -8.35,-8.99 -19.9,-15.41 -35.31,-17.98 -7.06,-0.64 -30.17,-1.28 -67.4,-1.28l-72.54 0 0 116.83zm367.18 265.12m0 0l0 -459.62 93.08 0 0 459.62 -93.08 0zm165.62 0m229.81 -168.83l0 -77.67 199.64 0 0 183.59c-19.26,18.62 -47.5,35.31 -84.09,49.43 -37.23,14.76 -74.46,21.83 -112.34,21.83 -48.15,0 -89.87,-10.27 -125.82,-30.17 -35.31,-20.54 -62.27,-49.43 -80.24,-86.66 -17.98,-37.87 -26.96,-78.96 -26.96,-123.25 0,-47.5 10.27,-90.51 30.17,-127.74 19.9,-37.23 49.43,-65.48 87.94,-85.38 29.53,-15.41 66.12,-23.11 109.77,-23.11 57.13,0 102.07,12.2 134.17,35.95 32.09,23.75 52.64,57.13 61.63,99.5l-92.44 17.33c-6.42,-22.46 -18.61,-40.44 -36.59,-53.92 -17.33,-12.84 -39.8,-19.26 -66.76,-19.26 -40.44,0 -72.54,12.84 -96.29,38.52 -23.75,25.68 -35.95,64.19 -35.95,114.91 0,54.56 12.2,95.65 36.59,122.61 23.75,27.6 55.85,41.08 95,41.08 19.26,0 38.52,-3.85 58.42,-11.55 19.26,-7.7 35.95,-16.69 50.07,-27.61l0 -58.41 -105.92 0zm266.4 168.83m0 -227.24c0,-46.86 7.06,-86.02 21.19,-118.11 10.27,-23.11 24.39,-44.3 43.01,-62.91 17.98,-18.61 37.87,-32.74 59.06,-41.72 28.89,-12.2 61.63,-17.98 99.5,-17.98 67.4,0 121.96,21.19 162.41,62.91 40.44,42.37 60.98,100.78 60.98,175.89 0,74.46 -19.9,132.24 -60.34,174.61 -40.44,41.72 -94.36,62.91 -161.76,62.91 -68.69,0 -123.25,-21.19 -163.69,-62.91 -39.8,-41.73 -60.34,-98.86 -60.34,-172.68zm95.65 -3.21c0,52.64 12.2,91.8 35.94,118.76 24.39,26.96 55.21,40.44 91.8,40.44 37.23,0 67.4,-13.48 91.8,-39.8 23.75,-26.96 35.31,-66.76 35.31,-120.68 0,-52.64 -11.56,-91.8 -34.67,-117.47 -23.11,-26.32 -53.92,-39.16 -92.44,-39.16 -37.87,0 -69.33,12.84 -92.44,39.16 -23.75,26.32 -35.3,66.12 -35.3,118.76z"/>
  </g>
 </g>
</svg>
